<?xml version="1.0" encoding="utf-8"?>
<!-- Generator: Adobe Illustrator 25.1.0, SVG Export Plug-In . SVG Version: 6.00 Build 0)  -->
<svg version="1.1" id="Laag_1" xmlns="http://www.w3.org/2000/svg" xmlns:xlink="http://www.w3.org/1999/xlink" x="0px" y="0px"
	 viewBox="0 0 273 81" style="enable-background:new 0 0 273 81;" xml:space="preserve">
<style type="text/css">
	.st0{display:none;fill:#D9DADB;}
	.st1{fill:#FFFFFF;}
	.st2{fill:#E0071C;}
	.st3{fill:#E2001A;}
	.st4{fill:#D9DADB;}
	.st5{fill:#4C4743;}
</style>
<path class="st0" d="M48.1,57.2v8.1H13.1V52.5c0-2.3,0.3-4.9,0.9-6.8c0.6-1.8,2.7-8.8,9.7-9.3h8.6c1.8,0,4.8-0.5,5.4-2.3
	c0.8-2.1,0.5-4.4,0.4-4.8c-0.7-2.8-3.9-3.4-5-3.4H13.6v-8.4h22.6c1.6,0,3,0.4,4.4,1.1c1.3,0.7,2.5,1.7,3.4,2.8
	c1,1.2,1.7,2.4,2.3,3.9c0.5,1.4,0.8,2.8,0.8,4.3c0,2.3-0.3,5.2-0.9,7c-0.6,1.8-1.4,2.7-2.4,4c-1,1.2-2.1,1.9-3.4,2.6
	c-1.3,0.7-2.7,1-4.2,1h-8.7c-0.7,0-1.4,0.1-2.1,0.3c-0.7,0.2-1.3,0.5-1.9,0.9c-0.5,0.4-1,1-1.4,1.7c-0.4,0.7-0.6,2.8-0.6,3.8v6.4
	H48.1z"/>
<g>
	<path class="st1" d="M134.9,27.6c0.6,0,0.9,0.3,0.9,0.8v14.8c0,1.8-0.2,3.4-0.6,4.7c-0.4,1.3-1,2.3-1.9,3.2c-0.9,0.8-2,1.4-3.4,1.7
		c-1.4,0.4-3.1,0.5-5.1,0.5h-5.4c-0.6,0-0.9-0.3-0.9-0.8v-4c0-0.6,0.3-0.8,0.9-0.8h5.2c1,0,1.9-0.1,2.6-0.2c0.7-0.2,1.2-0.4,1.6-0.8
		c0.4-0.4,0.7-0.9,0.8-1.6c0.2-0.7,0.2-1.5,0.2-2.6v-14c0-0.6,0.3-0.8,0.9-0.8H134.9z"/>
	<path class="st1" d="M147.3,42.4c0,1.1,0.1,1.9,0.3,2.6c0.2,0.7,0.5,1.2,0.9,1.7c0.4,0.4,1,0.7,1.7,0.9c0.7,0.2,1.6,0.3,2.7,0.3
		h3.1c1.1,0,2.1-0.1,2.8-0.3c0.7-0.2,1.3-0.5,1.7-0.9c0.4-0.4,0.7-1,0.9-1.7c0.2-0.7,0.3-1.6,0.3-2.6v-4c0-1-0.1-1.9-0.3-2.6
		c-0.2-0.7-0.5-1.3-0.9-1.7c-0.4-0.4-1-0.7-1.7-0.9c-0.7-0.2-1.6-0.2-2.8-0.2h-3.1c-1.1,0-2,0.1-2.7,0.2c-0.7,0.2-1.3,0.5-1.7,0.9
		c-0.4,0.4-0.7,1-0.9,1.7c-0.2,0.7-0.3,1.6-0.3,2.6V42.4z M156.7,27.3c2.3,0,4.2,0.2,5.8,0.6c1.6,0.4,2.8,1,3.8,1.8
		c0.9,0.8,1.6,1.8,2,3.1c0.4,1.3,0.6,2.8,0.6,4.6l0,6.3c0,1.8-0.2,3.3-0.6,4.6c-0.4,1.3-1.1,2.3-2,3.1c-0.9,0.8-2.2,1.4-3.8,1.8
		c-1.6,0.4-3.5,0.5-5.8,0.5h-4.5c-2.3,0-4.3-0.2-5.8-0.5c-1.6-0.4-2.8-0.9-3.8-1.8c-0.9-0.8-1.6-1.8-2-3.1c-0.4-1.3-0.6-2.8-0.6-4.6
		l0-6.3c0-1.8,0.2-3.3,0.6-4.6c0.4-1.3,1.1-2.3,2-3.1c0.9-0.8,2.2-1.4,3.8-1.8c1.6-0.4,3.5-0.6,5.8-0.6H156.7z"/>
	<path class="st1" d="M179.6,27.6c0.8,0,1.1,0.4,1.1,1.1v13.7c0,1.1,0.1,1.9,0.2,2.6c0.1,0.7,0.4,1.2,0.8,1.7
		c0.4,0.4,0.9,0.7,1.6,0.9c0.7,0.2,1.6,0.3,2.7,0.3h3.2c1.1,0,2.1-0.1,2.8-0.3c0.7-0.2,1.3-0.5,1.7-0.9c0.4-0.4,0.7-1,0.9-1.7
		c0.2-0.7,0.3-1.6,0.3-2.6V28.7c0-0.8,0.4-1.1,1.1-1.1h5c0.8,0,1.1,0.4,1.1,1.1v15c0,1.8-0.2,3.3-0.6,4.6c-0.4,1.3-1.1,2.3-2,3.1
		c-0.9,0.8-2.2,1.4-3.8,1.8c-1.6,0.4-3.5,0.5-5.8,0.5h-4.3c-2.3,0-4.3-0.2-5.8-0.5c-1.6-0.4-2.8-0.9-3.8-1.8c-0.9-0.8-1.6-1.8-2-3.1
		c-0.4-1.3-0.6-2.8-0.6-4.6v-15c0-0.8,0.4-1.1,1.2-1.1H179.6z"/>
	<path class="st1" d="M223.5,27.6c0.6,0,0.9,0.3,0.9,0.9v4c0,0.6-0.3,0.9-0.9,0.9h-3.6c-1.1,0-2,0.1-2.7,0.3
		c-0.7,0.2-1.3,0.5-1.7,0.9c-0.4,0.4-0.7,1-0.9,1.7c-0.2,0.7-0.3,1.6-0.3,2.6v13.6c0,0.7-0.4,1.1-1.1,1.1h-5c-0.8,0-1.2-0.4-1.2-1.1
		V37.6c0-1.8,0.2-3.3,0.6-4.6c0.4-1.3,1.1-2.3,2-3.1c0.9-0.8,2.2-1.4,3.8-1.8c1.6-0.4,3.5-0.6,5.8-0.6H223.5z"/>
	<path class="st1" d="M250.7,27.6c0.6,0,0.9,0.3,0.9,0.9v4c0,0.6-0.3,0.9-0.9,0.9h-13.2c-1.1,0-1.8,0.2-2.2,0.6
		c-0.4,0.4-0.6,0.9-0.6,1.7v0.2c0,0.7,0.2,1.2,0.6,1.6c0.4,0.4,1.2,0.6,2.2,0.6h7.3c2.9,0,4.9,0.6,6.2,1.7c1.2,1.2,1.9,2.8,1.9,4.9
		v2c0,1.1-0.1,2.1-0.4,2.9c-0.3,0.9-0.7,1.6-1.4,2.2c-0.6,0.6-1.5,1-2.5,1.4c-1,0.3-2.3,0.5-3.8,0.5h-16.3c-0.6,0-0.9-0.3-0.9-0.9
		v-4c0-0.6,0.3-0.9,0.9-0.9h14.3c1.1,0,1.9-0.1,2.4-0.4c0.4-0.4,0.5-0.8,0.5-1.6v-0.9c0-0.7-0.2-1.2-0.6-1.5
		c-0.4-0.4-1.2-0.5-2.2-0.5h-7.2c-2.9,0-4.9-0.6-6.2-1.7c-1.2-1.1-1.9-2.8-1.9-5v-1.6c0-1,0.1-2,0.4-2.8c0.3-0.8,0.7-1.6,1.4-2.2
		c0.6-0.6,1.5-1,2.5-1.4c1-0.3,2.3-0.5,3.8-0.5H250.7z"/>
	<path class="st1" d="M114.4,47.7h-13.2V47c0-1.4,0.9-3.2,2.6-3.2l3.1,0c4.7,0,8.5-3.2,8.5-7.9s-3.8-8.3-8.5-8.3h-3.3h0h-7.3
		c-0.3,0-0.5,0.2-0.5,0.5v4.7c0,0.3,0.2,0.5,0.5,0.5h7.3h0h3.3c1.4,0,2.6,1.1,2.6,2.5s-1.2,2.6-2.6,2.6l-3.1,0
		c-4.7,0-8.5,3.8-8.5,8.5v1.4V50v2.7c0,0.4,0.3,0.8,0.8,0.8h18.3c0.4,0,0.8-0.3,0.8-0.8v-4.2C115.1,48,114.8,47.7,114.4,47.7z"/>
</g>
<rect class="st2" width="81" height="81"/>
<polygon class="st3" points="0,81 81,81 81,0 "/>
<g>
	<path class="st4" d="M13.7,49.2c0-9.1,3.8-13.5,11.7-13.7h7.2c2.6,0,6.6,0.3,6.6-5.1c0-5.7-3.5-5.5-6.6-5.5H15.2v-8.4h17.6
		c7.7,0,14.8,2,14.8,13.9c0,9.6-6.6,12.7-14.8,12.7l-5.5,0c-3.7,0-5.2,2.4-5.1,6.2l0,6.9h25.2v8.1H13.7L13.7,49.2z"/>
	<path class="st5" d="M54.1,56.3C66,56.3,68,49.2,68,41.5V16.6h-8.4v25c0,3.1,0.2,6.6-5.5,6.6h-6.6v8.1H54.1z"/>
</g>
</svg>
